<?xml version="1.0" encoding="UTF-8"?>
<svg xmlns="http://www.w3.org/2000/svg" width="165.00" height="200.00" viewBox="0 0 165.00 200.00" font-family="Helvetica, Arial, 'Noto Sans JP', sans-serif" fill="#25312b" role="img">
<title>Button-controlled LED</title>
<desc>Breadboard wiring diagram generated by Breadkit. VCC: SW1.1, SW1.2, W1, USB.+ GND: D1.cathode, W2, USB.- N1: SW1.3, SW1.4, R1.1 N2: R1.2, D1.anode</desc>
<g transform="matrix(0 1 -1 0 175.00 15.00)">
<g id="board"><rect x="-15.00" y="-45.00" width="320.00" height="200.00" rx="8" fill="#f2f5f2" stroke="#b8c4bc" stroke-width="1"/><rect x="-10.00" y="45.00" width="310.00" height="20.00" rx="2" fill="#e0e6e2"/><rect x="7.00" y="-23.00" width="286.00" height="6.00" rx="3" fill="#cf5955" opacity="0.14" data-rail="T+"/><rect x="7.00" y="-33.00" width="286.00" height="6.00" rx="3" fill="#71847e" opacity="0.14" data-rail="T-"/><rect x="7.00" y="137.00" width="286.00" height="6.00" rx="3" fill="#cf5955" opacity="0.14" data-rail="B+"/><rect x="7.00" y="127.00" width="286.00" height="6.00" rx="3" fill="#71847e" opacity="0.14" data-rail="B-"/></g>
<g id="holes"><defs><circle id="h" r="1.3"/><circle id="u" r="1.8"/></defs><style>#holes use{fill:#9aa69f;opacity:.75}#holes use.c{fill:#71877a}#holes use.o{fill:#394a40;opacity:1}</style><use href="#h" x="0" y="110" data-hole="a1"><title>a1</title></use><use href="#h" x="0" y="100" data-hole="b1"><title>b1</title></use><use href="#h" x="0" y="90" data-hole="c1"><title>c1</title></use><use href="#h" x="0" y="80" data-hole="d1"><title>d1</title></use><use href="#h" x="0" y="70" data-hole="e1"><title>e1</title></use><use href="#h" x="0" y="40" data-hole="f1"><title>f1</title></use><use href="#h" x="0" y="30" data-hole="g1"><title>g1</title></use><use href="#h" x="0" y="20" data-hole="h1"><title>h1</title></use><use href="#h" x="0" y="10" data-hole="i1"><title>i1</title></use><use href="#h" x="0" y="0" data-hole="j1"><title>j1</title></use><use href="#h" x="10" y="110" data-hole="a2"><title>a2</title></use><use href="#h" x="10" y="100" data-hole="b2"><title>b2</title></use><use href="#h" x="10" y="90" data-hole="c2"><title>c2</title></use><use href="#h" x="10" y="80" data-hole="d2"><title>d2</title></use><use href="#h" x="10" y="70" data-hole="e2"><title>e2</title></use><use href="#h" x="10" y="40" data-hole="f2"><title>f2</title></use><use href="#h" x="10" y="30" data-hole="g2"><title>g2</title></use><use href="#h" x="10" y="20" data-hole="h2"><title>h2</title></use><use href="#h" x="10" y="10" data-hole="i2"><title>i2</title></use><use href="#h" x="10" y="0" data-hole="j2"><title>j2</title></use><use href="#h" x="20" y="110" data-hole="a3"><title>a3</title></use><use href="#h" x="20" y="100" data-hole="b3"><title>b3</title></use><use href="#h" x="20" y="90" data-hole="c3"><title>c3</title></use><use href="#h" x="20" y="80" data-hole="d3"><title>d3</title></use><use href="#h" x="20" y="70" data-hole="e3"><title>e3</title></use><use href="#h" x="20" y="40" data-hole="f3"><title>f3</title></use><use href="#h" x="20" y="30" data-hole="g3"><title>g3</title></use><use href="#h" x="20" y="20" data-hole="h3"><title>h3</title></use><use href="#h" x="20" y="10" data-hole="i3"><title>i3</title></use><use href="#h" x="20" y="0" data-hole="j3"><title>j3</title></use><use href="#h" x="30" y="110" data-hole="a4"><title>a4</title></use><use href="#h" x="30" y="100" data-hole="b4"><title>b4</title></use><use href="#h" x="30" y="90" data-hole="c4"><title>c4</title></use><use href="#h" x="30" y="80" data-hole="d4"><title>d4</title></use><use href="#h" x="30" y="70" data-hole="e4"><title>e4</title></use><use href="#h" x="30" y="40" data-hole="f4"><title>f4</title></use><use href="#h" x="30" y="30" data-hole="g4"><title>g4</title></use><use href="#h" x="30" y="20" data-hole="h4"><title>h4</title></use><use href="#h" x="30" y="10" data-hole="i4"><title>i4</title></use><use href="#h" x="30" y="0" data-hole="j4"><title>j4</title></use><use href="#h" x="40" y="110" data-hole="a5"><title>a5</title></use><use href="#h" x="40" y="100" data-hole="b5"><title>b5</title></use><use href="#h" x="40" y="90" data-hole="c5"><title>c5</title></use><use href="#h" x="40" y="80" data-hole="d5"><title>d5</title></use><use href="#h" x="40" y="70" data-hole="e5"><title>e5</title></use><use href="#h" x="40" y="40" data-hole="f5"><title>f5</title></use><use href="#h" x="40" y="30" data-hole="g5"><title>g5</title></use><use href="#h" x="40" y="20" data-hole="h5"><title>h5</title></use><use href="#h" x="40" y="10" data-hole="i5"><title>i5</title></use><use href="#h" x="40" y="0" data-hole="j5"><title>j5</title></use><use href="#h" x="50" y="110" data-hole="a6"><title>a6</title></use><use href="#h" x="50" y="100" data-hole="b6"><title>b6</title></use><use href="#h" x="50" y="90" data-hole="c6"><title>c6</title></use><use href="#h" x="50" y="80" data-hole="d6"><title>d6</title></use><use href="#h" x="50" y="70" data-hole="e6"><title>e6</title></use><use href="#h" x="50" y="40" data-hole="f6"><title>f6</title></use><use href="#h" x="50" y="30" data-hole="g6"><title>g6</title></use><use href="#h" x="50" y="20" data-hole="h6"><title>h6</title></use><use href="#h" x="50" y="10" data-hole="i6"><title>i6</title></use><use href="#h" x="50" y="0" data-hole="j6"><title>j6</title></use><use href="#h" x="60" y="110" data-hole="a7"><title>a7</title></use><use href="#h" x="60" y="100" data-hole="b7"><title>b7</title></use><use href="#h" x="60" y="90" data-hole="c7"><title>c7</title></use><use href="#h" x="60" y="80" data-hole="d7"><title>d7</title></use><use href="#h" x="60" y="70" data-hole="e7"><title>e7</title></use><use href="#h" x="60" y="40" data-hole="f7"><title>f7</title></use><use href="#h" x="60" y="30" data-hole="g7"><title>g7</title></use><use href="#h" x="60" y="20" data-hole="h7"><title>h7</title></use><use href="#h" x="60" y="10" data-hole="i7"><title>i7</title></use><use href="#h" x="60" y="0" data-hole="j7"><title>j7</title></use><use href="#h" x="70" y="110" data-hole="a8"><title>a8</title></use><use href="#h" x="70" y="100" data-hole="b8"><title>b8</title></use><use href="#h" x="70" y="90" data-hole="c8"><title>c8</title></use><use href="#h" x="70" y="80" data-hole="d8"><title>d8</title></use><use href="#h" x="70" y="70" data-hole="e8"><title>e8</title></use><use href="#h" x="70" y="40" data-hole="f8"><title>f8</title></use><use href="#h" x="70" y="30" data-hole="g8"><title>g8</title></use><use href="#h" x="70" y="20" data-hole="h8"><title>h8</title></use><use href="#h" x="70" y="10" data-hole="i8"><title>i8</title></use><use href="#h" x="70" y="0" data-hole="j8"><title>j8</title></use><use href="#h" x="80" y="110" data-hole="a9"><title>a9</title></use><use href="#h" x="80" y="100" data-hole="b9"><title>b9</title></use><use href="#h" x="80" y="90" data-hole="c9"><title>c9</title></use><use href="#h" x="80" y="80" data-hole="d9"><title>d9</title></use><use href="#h" x="80" y="70" data-hole="e9"><title>e9</title></use><use href="#h" x="80" y="40" data-hole="f9"><title>f9</title></use><use href="#h" x="80" y="30" data-hole="g9"><title>g9</title></use><use href="#h" x="80" y="20" data-hole="h9"><title>h9</title></use><use href="#h" x="80" y="10" data-hole="i9"><title>i9</title></use><use href="#h" x="80" y="0" data-hole="j9"><title>j9</title></use><use href="#u" x="90" y="110" data-hole="a10" class="o" data-occupied="true" data-connected="true" data-net="VCC"><title>a10 / VCC</title></use><use href="#h" x="90" y="100" data-hole="b10" class="c" data-connected="true" data-net="VCC"><title>b10 / VCC</title></use><use href="#h" x="90" y="90" data-hole="c10" class="c" data-connected="true" data-net="VCC"><title>c10 / VCC</title></use><use href="#h" x="90" y="80" data-hole="d10" class="c" data-connected="true" data-net="VCC"><title>d10 / VCC</title></use><use href="#u" x="90" y="70" data-hole="e10" class="o" data-occupied="true" data-connected="true" data-net="VCC"><title>e10 / VCC</title></use><use href="#u" x="90" y="40" data-hole="f10" class="o" data-occupied="true" data-connected="true" data-net="VCC"><title>f10 / VCC</title></use><use href="#h" x="90" y="30" data-hole="g10" class="c" data-connected="true" data-net="VCC"><title>g10 / VCC</title></use><use href="#h" x="90" y="20" data-hole="h10" class="c" data-connected="true" data-net="VCC"><title>h10 / VCC</title></use><use href="#h" x="90" y="10" data-hole="i10" class="c" data-connected="true" data-net="VCC"><title>i10 / VCC</title></use><use href="#h" x="90" y="0" data-hole="j10" class="c" data-connected="true" data-net="VCC"><title>j10 / VCC</title></use><use href="#h" x="100" y="110" data-hole="a11"><title>a11</title></use><use href="#h" x="100" y="100" data-hole="b11"><title>b11</title></use><use href="#h" x="100" y="90" data-hole="c11"><title>c11</title></use><use href="#h" x="100" y="80" data-hole="d11"><title>d11</title></use><use href="#h" x="100" y="70" data-hole="e11"><title>e11</title></use><use href="#h" x="100" y="40" data-hole="f11"><title>f11</title></use><use href="#h" x="100" y="30" data-hole="g11"><title>g11</title></use><use href="#h" x="100" y="20" data-hole="h11"><title>h11</title></use><use href="#h" x="100" y="10" data-hole="i11"><title>i11</title></use><use href="#h" x="100" y="0" data-hole="j11"><title>j11</title></use><use href="#u" x="110" y="110" data-hole="a12" class="o" data-occupied="true" data-connected="true" data-net="N1"><title>a12 / N1</title></use><use href="#h" x="110" y="100" data-hole="b12" class="c" data-connected="true" data-net="N1"><title>b12 / N1</title></use><use href="#h" x="110" y="90" data-hole="c12" class="c" data-connected="true" data-net="N1"><title>c12 / N1</title></use><use href="#h" x="110" y="80" data-hole="d12" class="c" data-connected="true" data-net="N1"><title>d12 / N1</title></use><use href="#u" x="110" y="70" data-hole="e12" class="o" data-occupied="true" data-connected="true" data-net="N1"><title>e12 / N1</title></use><use href="#u" x="110" y="40" data-hole="f12" class="o" data-occupied="true" data-connected="true" data-net="N1"><title>f12 / N1</title></use><use href="#h" x="110" y="30" data-hole="g12" class="c" data-connected="true" data-net="N1"><title>g12 / N1</title></use><use href="#h" x="110" y="20" data-hole="h12" class="c" data-connected="true" data-net="N1"><title>h12 / N1</title></use><use href="#h" x="110" y="10" data-hole="i12" class="c" data-connected="true" data-net="N1"><title>i12 / N1</title></use><use href="#h" x="110" y="0" data-hole="j12" class="c" data-connected="true" data-net="N1"><title>j12 / N1</title></use><use href="#h" x="120" y="110" data-hole="a13"><title>a13</title></use><use href="#h" x="120" y="100" data-hole="b13"><title>b13</title></use><use href="#h" x="120" y="90" data-hole="c13"><title>c13</title></use><use href="#h" x="120" y="80" data-hole="d13"><title>d13</title></use><use href="#h" x="120" y="70" data-hole="e13"><title>e13</title></use><use href="#h" x="120" y="40" data-hole="f13"><title>f13</title></use><use href="#h" x="120" y="30" data-hole="g13"><title>g13</title></use><use href="#h" x="120" y="20" data-hole="h13"><title>h13</title></use><use href="#h" x="120" y="10" data-hole="i13"><title>i13</title></use><use href="#h" x="120" y="0" data-hole="j13"><title>j13</title></use><use href="#h" x="130" y="110" data-hole="a14"><title>a14</title></use><use href="#h" x="130" y="100" data-hole="b14"><title>b14</title></use><use href="#h" x="130" y="90" data-hole="c14"><title>c14</title></use><use href="#h" x="130" y="80" data-hole="d14"><title>d14</title></use><use href="#h" x="130" y="70" data-hole="e14"><title>e14</title></use><use href="#h" x="130" y="40" data-hole="f14"><title>f14</title></use><use href="#h" x="130" y="30" data-hole="g14"><title>g14</title></use><use href="#h" x="130" y="20" data-hole="h14"><title>h14</title></use><use href="#h" x="130" y="10" data-hole="i14"><title>i14</title></use><use href="#h" x="130" y="0" data-hole="j14"><title>j14</title></use><use href="#h" x="140" y="110" data-hole="a15"><title>a15</title></use><use href="#h" x="140" y="100" data-hole="b15"><title>b15</title></use><use href="#h" x="140" y="90" data-hole="c15"><title>c15</title></use><use href="#h" x="140" y="80" data-hole="d15"><title>d15</title></use><use href="#h" x="140" y="70" data-hole="e15"><title>e15</title></use><use href="#h" x="140" y="40" data-hole="f15"><title>f15</title></use><use href="#h" x="140" y="30" data-hole="g15"><title>g15</title></use><use href="#h" x="140" y="20" data-hole="h15"><title>h15</title></use><use href="#h" x="140" y="10" data-hole="i15"><title>i15</title></use><use href="#h" x="140" y="0" data-hole="j15"><title>j15</title></use><use href="#u" x="150" y="110" data-hole="a16" class="o" data-occupied="true" data-connected="true" data-net="N2"><title>a16 / N2</title></use><use href="#u" x="150" y="100" data-hole="b16" class="o" data-occupied="true" data-connected="true" data-net="N2"><title>b16 / N2</title></use><use href="#h" x="150" y="90" data-hole="c16" class="c" data-connected="true" data-net="N2"><title>c16 / N2</title></use><use href="#h" x="150" y="80" data-hole="d16" class="c" data-connected="true" data-net="N2"><title>d16 / N2</title></use><use href="#h" x="150" y="70" data-hole="e16" class="c" data-connected="true" data-net="N2"><title>e16 / N2</title></use><use href="#h" x="150" y="40" data-hole="f16"><title>f16</title></use><use href="#h" x="150" y="30" data-hole="g16"><title>g16</title></use><use href="#h" x="150" y="20" data-hole="h16"><title>h16</title></use><use href="#h" x="150" y="10" data-hole="i16"><title>i16</title></use><use href="#h" x="150" y="0" data-hole="j16"><title>j16</title></use><use href="#u" x="160" y="110" data-hole="a17" class="o" data-occupied="true" data-connected="true" data-net="GND"><title>a17 / GND</title></use><use href="#u" x="160" y="100" data-hole="b17" class="o" data-occupied="true" data-connected="true" data-net="GND"><title>b17 / GND</title></use><use href="#h" x="160" y="90" data-hole="c17" class="c" data-connected="true" data-net="GND"><title>c17 / GND</title></use><use href="#h" x="160" y="80" data-hole="d17" class="c" data-connected="true" data-net="GND"><title>d17 / GND</title></use><use href="#h" x="160" y="70" data-hole="e17" class="c" data-connected="true" data-net="GND"><title>e17 / GND</title></use><use href="#h" x="160" y="40" data-hole="f17"><title>f17</title></use><use href="#h" x="160" y="30" data-hole="g17"><title>g17</title></use><use href="#h" x="160" y="20" data-hole="h17"><title>h17</title></use><use href="#h" x="160" y="10" data-hole="i17"><title>i17</title></use><use href="#h" x="160" y="0" data-hole="j17"><title>j17</title></use><use href="#h" x="170" y="110" data-hole="a18"><title>a18</title></use><use href="#h" x="170" y="100" data-hole="b18"><title>b18</title></use><use href="#h" x="170" y="90" data-hole="c18"><title>c18</title></use><use href="#h" x="170" y="80" data-hole="d18"><title>d18</title></use><use href="#h" x="170" y="70" data-hole="e18"><title>e18</title></use><use href="#h" x="170" y="40" data-hole="f18"><title>f18</title></use><use href="#h" x="170" y="30" data-hole="g18"><title>g18</title></use><use href="#h" x="170" y="20" data-hole="h18"><title>h18</title></use><use href="#h" x="170" y="10" data-hole="i18"><title>i18</title></use><use href="#h" x="170" y="0" data-hole="j18"><title>j18</title></use><use href="#h" x="180" y="110" data-hole="a19"><title>a19</title></use><use href="#h" x="180" y="100" data-hole="b19"><title>b19</title></use><use href="#h" x="180" y="90" data-hole="c19"><title>c19</title></use><use href="#h" x="180" y="80" data-hole="d19"><title>d19</title></use><use href="#h" x="180" y="70" data-hole="e19"><title>e19</title></use><use href="#h" x="180" y="40" data-hole="f19"><title>f19</title></use><use href="#h" x="180" y="30" data-hole="g19"><title>g19</title></use><use href="#h" x="180" y="20" data-hole="h19"><title>h19</title></use><use href="#h" x="180" y="10" data-hole="i19"><title>i19</title></use><use href="#h" x="180" y="0" data-hole="j19"><title>j19</title></use><use href="#h" x="190" y="110" data-hole="a20"><title>a20</title></use><use href="#h" x="190" y="100" data-hole="b20"><title>b20</title></use><use href="#h" x="190" y="90" data-hole="c20"><title>c20</title></use><use href="#h" x="190" y="80" data-hole="d20"><title>d20</title></use><use href="#h" x="190" y="70" data-hole="e20"><title>e20</title></use><use href="#h" x="190" y="40" data-hole="f20"><title>f20</title></use><use href="#h" x="190" y="30" data-hole="g20"><title>g20</title></use><use href="#h" x="190" y="20" data-hole="h20"><title>h20</title></use><use href="#h" x="190" y="10" data-hole="i20"><title>i20</title></use><use href="#h" x="190" y="0" data-hole="j20"><title>j20</title></use><use href="#h" x="200" y="110" data-hole="a21"><title>a21</title></use><use href="#h" x="200" y="100" data-hole="b21"><title>b21</title></use><use href="#h" x="200" y="90" data-hole="c21"><title>c21</title></use><use href="#h" x="200" y="80" data-hole="d21"><title>d21</title></use><use href="#h" x="200" y="70" data-hole="e21"><title>e21</title></use><use href="#h" x="200" y="40" data-hole="f21"><title>f21</title></use><use href="#h" x="200" y="30" data-hole="g21"><title>g21</title></use><use href="#h" x="200" y="20" data-hole="h21"><title>h21</title></use><use href="#h" x="200" y="10" data-hole="i21"><title>i21</title></use><use href="#h" x="200" y="0" data-hole="j21"><title>j21</title></use><use href="#h" x="210" y="110" data-hole="a22"><title>a22</title></use><use href="#h" x="210" y="100" data-hole="b22"><title>b22</title></use><use href="#h" x="210" y="90" data-hole="c22"><title>c22</title></use><use href="#h" x="210" y="80" data-hole="d22"><title>d22</title></use><use href="#h" x="210" y="70" data-hole="e22"><title>e22</title></use><use href="#h" x="210" y="40" data-hole="f22"><title>f22</title></use><use href="#h" x="210" y="30" data-hole="g22"><title>g22</title></use><use href="#h" x="210" y="20" data-hole="h22"><title>h22</title></use><use href="#h" x="210" y="10" data-hole="i22"><title>i22</title></use><use href="#h" x="210" y="0" data-hole="j22"><title>j22</title></use><use href="#h" x="220" y="110" data-hole="a23"><title>a23</title></use><use href="#h" x="220" y="100" data-hole="b23"><title>b23</title></use><use href="#h" x="220" y="90" data-hole="c23"><title>c23</title></use><use href="#h" x="220" y="80" data-hole="d23"><title>d23</title></use><use href="#h" x="220" y="70" data-hole="e23"><title>e23</title></use><use href="#h" x="220" y="40" data-hole="f23"><title>f23</title></use><use href="#h" x="220" y="30" data-hole="g23"><title>g23</title></use><use href="#h" x="220" y="20" data-hole="h23"><title>h23</title></use><use href="#h" x="220" y="10" data-hole="i23"><title>i23</title></use><use href="#h" x="220" y="0" data-hole="j23"><title>j23</title></use><use href="#h" x="230" y="110" data-hole="a24"><title>a24</title></use><use href="#h" x="230" y="100" data-hole="b24"><title>b24</title></use><use href="#h" x="230" y="90" data-hole="c24"><title>c24</title></use><use href="#h" x="230" y="80" data-hole="d24"><title>d24</title></use><use href="#h" x="230" y="70" data-hole="e24"><title>e24</title></use><use href="#h" x="230" y="40" data-hole="f24"><title>f24</title></use><use href="#h" x="230" y="30" data-hole="g24"><title>g24</title></use><use href="#h" x="230" y="20" data-hole="h24"><title>h24</title></use><use href="#h" x="230" y="10" data-hole="i24"><title>i24</title></use><use href="#h" x="230" y="0" data-hole="j24"><title>j24</title></use><use href="#h" x="240" y="110" data-hole="a25"><title>a25</title></use><use href="#h" x="240" y="100" data-hole="b25"><title>b25</title></use><use href="#h" x="240" y="90" data-hole="c25"><title>c25</title></use><use href="#h" x="240" y="80" data-hole="d25"><title>d25</title></use><use href="#h" x="240" y="70" data-hole="e25"><title>e25</title></use><use href="#h" x="240" y="40" data-hole="f25"><title>f25</title></use><use href="#h" x="240" y="30" data-hole="g25"><title>g25</title></use><use href="#h" x="240" y="20" data-hole="h25"><title>h25</title></use><use href="#h" x="240" y="10" data-hole="i25"><title>i25</title></use><use href="#h" x="240" y="0" data-hole="j25"><title>j25</title></use><use href="#h" x="250" y="110" data-hole="a26"><title>a26</title></use><use href="#h" x="250" y="100" data-hole="b26"><title>b26</title></use><use href="#h" x="250" y="90" data-hole="c26"><title>c26</title></use><use href="#h" x="250" y="80" data-hole="d26"><title>d26</title></use><use href="#h" x="250" y="70" data-hole="e26"><title>e26</title></use><use href="#h" x="250" y="40" data-hole="f26"><title>f26</title></use><use href="#h" x="250" y="30" data-hole="g26"><title>g26</title></use><use href="#h" x="250" y="20" data-hole="h26"><title>h26</title></use><use href="#h" x="250" y="10" data-hole="i26"><title>i26</title></use><use href="#h" x="250" y="0" data-hole="j26"><title>j26</title></use><use href="#h" x="260" y="110" data-hole="a27"><title>a27</title></use><use href="#h" x="260" y="100" data-hole="b27"><title>b27</title></use><use href="#h" x="260" y="90" data-hole="c27"><title>c27</title></use><use href="#h" x="260" y="80" data-hole="d27"><title>d27</title></use><use href="#h" x="260" y="70" data-hole="e27"><title>e27</title></use><use href="#h" x="260" y="40" data-hole="f27"><title>f27</title></use><use href="#h" x="260" y="30" data-hole="g27"><title>g27</title></use><use href="#h" x="260" y="20" data-hole="h27"><title>h27</title></use><use href="#h" x="260" y="10" data-hole="i27"><title>i27</title></use><use href="#h" x="260" y="0" data-hole="j27"><title>j27</title></use><use href="#h" x="270" y="110" data-hole="a28"><title>a28</title></use><use href="#h" x="270" y="100" data-hole="b28"><title>b28</title></use><use href="#h" x="270" y="90" data-hole="c28"><title>c28</title></use><use href="#h" x="270" y="80" data-hole="d28"><title>d28</title></use><use href="#h" x="270" y="70" data-hole="e28"><title>e28</title></use><use href="#h" x="270" y="40" data-hole="f28"><title>f28</title></use><use href="#h" x="270" y="30" data-hole="g28"><title>g28</title></use><use href="#h" x="270" y="20" data-hole="h28"><title>h28</title></use><use href="#h" x="270" y="10" data-hole="i28"><title>i28</title></use><use href="#h" x="270" y="0" data-hole="j28"><title>j28</title></use><use href="#h" x="280" y="110" data-hole="a29"><title>a29</title></use><use href="#h" x="280" y="100" data-hole="b29"><title>b29</title></use><use href="#h" x="280" y="90" data-hole="c29"><title>c29</title></use><use href="#h" x="280" y="80" data-hole="d29"><title>d29</title></use><use href="#h" x="280" y="70" data-hole="e29"><title>e29</title></use><use href="#h" x="280" y="40" data-hole="f29"><title>f29</title></use><use href="#h" x="280" y="30" data-hole="g29"><title>g29</title></use><use href="#h" x="280" y="20" data-hole="h29"><title>h29</title></use><use href="#h" x="280" y="10" data-hole="i29"><title>i29</title></use><use href="#h" x="280" y="0" data-hole="j29"><title>j29</title></use><use href="#h" x="290" y="110" data-hole="a30"><title>a30</title></use><use href="#h" x="290" y="100" data-hole="b30"><title>b30</title></use><use href="#h" x="290" y="90" data-hole="c30"><title>c30</title></use><use href="#h" x="290" y="80" data-hole="d30"><title>d30</title></use><use href="#h" x="290" y="70" data-hole="e30"><title>e30</title></use><use href="#h" x="290" y="40" data-hole="f30"><title>f30</title></use><use href="#h" x="290" y="30" data-hole="g30"><title>g30</title></use><use href="#h" x="290" y="20" data-hole="h30"><title>h30</title></use><use href="#h" x="290" y="10" data-hole="i30"><title>i30</title></use><use href="#h" x="290" y="0" data-hole="j30"><title>j30</title></use><use href="#h" x="10" y="-20" data-hole="T+1"><title>T+1</title></use><use href="#h" x="20" y="-20" data-hole="T+2"><title>T+2</title></use><use href="#h" x="30" y="-20" data-hole="T+3"><title>T+3</title></use><use href="#h" x="40" y="-20" data-hole="T+4"><title>T+4</title></use><use href="#h" x="50" y="-20" data-hole="T+5"><title>T+5</title></use><use href="#h" x="70" y="-20" data-hole="T+6"><title>T+6</title></use><use href="#h" x="80" y="-20" data-hole="T+7"><title>T+7</title></use><use href="#h" x="90" y="-20" data-hole="T+8"><title>T+8</title></use><use href="#h" x="100" y="-20" data-hole="T+9"><title>T+9</title></use><use href="#h" x="110" y="-20" data-hole="T+10"><title>T+10</title></use><use href="#h" x="130" y="-20" data-hole="T+11"><title>T+11</title></use><use href="#h" x="140" y="-20" data-hole="T+12"><title>T+12</title></use><use href="#h" x="150" y="-20" data-hole="T+13"><title>T+13</title></use><use href="#h" x="160" y="-20" data-hole="T+14"><title>T+14</title></use><use href="#h" x="170" y="-20" data-hole="T+15"><title>T+15</title></use><use href="#h" x="190" y="-20" data-hole="T+16"><title>T+16</title></use><use href="#h" x="200" y="-20" data-hole="T+17"><title>T+17</title></use><use href="#h" x="210" y="-20" data-hole="T+18"><title>T+18</title></use><use href="#h" x="220" y="-20" data-hole="T+19"><title>T+19</title></use><use href="#h" x="230" y="-20" data-hole="T+20"><title>T+20</title></use><use href="#h" x="250" y="-20" data-hole="T+21"><title>T+21</title></use><use href="#h" x="260" y="-20" data-hole="T+22"><title>T+22</title></use><use href="#h" x="270" y="-20" data-hole="T+23"><title>T+23</title></use><use href="#h" x="280" y="-20" data-hole="T+24"><title>T+24</title></use><use href="#h" x="290" y="-20" data-hole="T+25"><title>T+25</title></use><use href="#h" x="10" y="-30" data-hole="T-1"><title>T-1</title></use><use href="#h" x="20" y="-30" data-hole="T-2"><title>T-2</title></use><use href="#h" x="30" y="-30" data-hole="T-3"><title>T-3</title></use><use href="#h" x="40" y="-30" data-hole="T-4"><title>T-4</title></use><use href="#h" x="50" y="-30" data-hole="T-5"><title>T-5</title></use><use href="#h" x="70" y="-30" data-hole="T-6"><title>T-6</title></use><use href="#h" x="80" y="-30" data-hole="T-7"><title>T-7</title></use><use href="#h" x="90" y="-30" data-hole="T-8"><title>T-8</title></use><use href="#h" x="100" y="-30" data-hole="T-9"><title>T-9</title></use><use href="#h" x="110" y="-30" data-hole="T-10"><title>T-10</title></use><use href="#h" x="130" y="-30" data-hole="T-11"><title>T-11</title></use><use href="#h" x="140" y="-30" data-hole="T-12"><title>T-12</title></use><use href="#h" x="150" y="-30" data-hole="T-13"><title>T-13</title></use><use href="#h" x="160" y="-30" data-hole="T-14"><title>T-14</title></use><use href="#h" x="170" y="-30" data-hole="T-15"><title>T-15</title></use><use href="#h" x="190" y="-30" data-hole="T-16"><title>T-16</title></use><use href="#h" x="200" y="-30" data-hole="T-17"><title>T-17</title></use><use href="#h" x="210" y="-30" data-hole="T-18"><title>T-18</title></use><use href="#h" x="220" y="-30" data-hole="T-19"><title>T-19</title></use><use href="#h" x="230" y="-30" data-hole="T-20"><title>T-20</title></use><use href="#h" x="250" y="-30" data-hole="T-21"><title>T-21</title></use><use href="#h" x="260" y="-30" data-hole="T-22"><title>T-22</title></use><use href="#h" x="270" y="-30" data-hole="T-23"><title>T-23</title></use><use href="#h" x="280" y="-30" data-hole="T-24"><title>T-24</title></use><use href="#h" x="290" y="-30" data-hole="T-25"><title>T-25</title></use><use href="#u" x="10" y="140" data-hole="B+1" class="o" data-occupied="true" data-connected="true" data-net="VCC"><title>B+1 / VCC</title></use><use href="#h" x="20" y="140" data-hole="B+2" class="c" data-connected="true" data-net="VCC"><title>B+2 / VCC</title></use><use href="#h" x="30" y="140" data-hole="B+3" class="c" data-connected="true" data-net="VCC"><title>B+3 / VCC</title></use><use href="#h" x="40" y="140" data-hole="B+4" class="c" data-connected="true" data-net="VCC"><title>B+4 / VCC</title></use><use href="#h" x="50" y="140" data-hole="B+5" class="c" data-connected="true" data-net="VCC"><title>B+5 / VCC</title></use><use href="#h" x="70" y="140" data-hole="B+6" class="c" data-connected="true" data-net="VCC"><title>B+6 / VCC</title></use><use href="#h" x="80" y="140" data-hole="B+7" class="c" data-connected="true" data-net="VCC"><title>B+7 / VCC</title></use><use href="#u" x="90" y="140" data-hole="B+8" class="o" data-occupied="true" data-connected="true" data-net="VCC"><title>B+8 / VCC</title></use><use href="#h" x="100" y="140" data-hole="B+9" class="c" data-connected="true" data-net="VCC"><title>B+9 / VCC</title></use><use href="#h" x="110" y="140" data-hole="B+10" class="c" data-connected="true" data-net="VCC"><title>B+10 / VCC</title></use><use href="#h" x="130" y="140" data-hole="B+11" class="c" data-connected="true" data-net="VCC"><title>B+11 / VCC</title></use><use href="#h" x="140" y="140" data-hole="B+12" class="c" data-connected="true" data-net="VCC"><title>B+12 / VCC</title></use><use href="#h" x="150" y="140" data-hole="B+13" class="c" data-connected="true" data-net="VCC"><title>B+13 / VCC</title></use><use href="#h" x="160" y="140" data-hole="B+14" class="c" data-connected="true" data-net="VCC"><title>B+14 / VCC</title></use><use href="#h" x="170" y="140" data-hole="B+15" class="c" data-connected="true" data-net="VCC"><title>B+15 / VCC</title></use><use href="#h" x="190" y="140" data-hole="B+16" class="c" data-connected="true" data-net="VCC"><title>B+16 / VCC</title></use><use href="#h" x="200" y="140" data-hole="B+17" class="c" data-connected="true" data-net="VCC"><title>B+17 / VCC</title></use><use href="#h" x="210" y="140" data-hole="B+18" class="c" data-connected="true" data-net="VCC"><title>B+18 / VCC</title></use><use href="#h" x="220" y="140" data-hole="B+19" class="c" data-connected="true" data-net="VCC"><title>B+19 / VCC</title></use><use href="#h" x="230" y="140" data-hole="B+20" class="c" data-connected="true" data-net="VCC"><title>B+20 / VCC</title></use><use href="#h" x="250" y="140" data-hole="B+21" class="c" data-connected="true" data-net="VCC"><title>B+21 / VCC</title></use><use href="#h" x="260" y="140" data-hole="B+22" class="c" data-connected="true" data-net="VCC"><title>B+22 / VCC</title></use><use href="#h" x="270" y="140" data-hole="B+23" class="c" data-connected="true" data-net="VCC"><title>B+23 / VCC</title></use><use href="#h" x="280" y="140" data-hole="B+24" class="c" data-connected="true" data-net="VCC"><title>B+24 / VCC</title></use><use href="#h" x="290" y="140" data-hole="B+25" class="c" data-connected="true" data-net="VCC"><title>B+25 / VCC</title></use><use href="#u" x="10" y="130" data-hole="B-1" class="o" data-occupied="true" data-connected="true" data-net="GND"><title>B-1 / GND</title></use><use href="#h" x="20" y="130" data-hole="B-2" class="c" data-connected="true" data-net="GND"><title>B-2 / GND</title></use><use href="#h" x="30" y="130" data-hole="B-3" class="c" data-connected="true" data-net="GND"><title>B-3 / GND</title></use><use href="#h" x="40" y="130" data-hole="B-4" class="c" data-connected="true" data-net="GND"><title>B-4 / GND</title></use><use href="#h" x="50" y="130" data-hole="B-5" class="c" data-connected="true" data-net="GND"><title>B-5 / GND</title></use><use href="#h" x="70" y="130" data-hole="B-6" class="c" data-connected="true" data-net="GND"><title>B-6 / GND</title></use><use href="#h" x="80" y="130" data-hole="B-7" class="c" data-connected="true" data-net="GND"><title>B-7 / GND</title></use><use href="#h" x="90" y="130" data-hole="B-8" class="c" data-connected="true" data-net="GND"><title>B-8 / GND</title></use><use href="#h" x="100" y="130" data-hole="B-9" class="c" data-connected="true" data-net="GND"><title>B-9 / GND</title></use><use href="#h" x="110" y="130" data-hole="B-10" class="c" data-connected="true" data-net="GND"><title>B-10 / GND</title></use><use href="#h" x="130" y="130" data-hole="B-11" class="c" data-connected="true" data-net="GND"><title>B-11 / GND</title></use><use href="#h" x="140" y="130" data-hole="B-12" class="c" data-connected="true" data-net="GND"><title>B-12 / GND</title></use><use href="#h" x="150" y="130" data-hole="B-13" class="c" data-connected="true" data-net="GND"><title>B-13 / GND</title></use><use href="#u" x="160" y="130" data-hole="B-14" class="o" data-occupied="true" data-connected="true" data-net="GND"><title>B-14 / GND</title></use><use href="#h" x="170" y="130" data-hole="B-15" class="c" data-connected="true" data-net="GND"><title>B-15 / GND</title></use><use href="#h" x="190" y="130" data-hole="B-16" class="c" data-connected="true" data-net="GND"><title>B-16 / GND</title></use><use href="#h" x="200" y="130" data-hole="B-17" class="c" data-connected="true" data-net="GND"><title>B-17 / GND</title></use><use href="#h" x="210" y="130" data-hole="B-18" class="c" data-connected="true" data-net="GND"><title>B-18 / GND</title></use><use href="#h" x="220" y="130" data-hole="B-19" class="c" data-connected="true" data-net="GND"><title>B-19 / GND</title></use><use href="#h" x="230" y="130" data-hole="B-20" class="c" data-connected="true" data-net="GND"><title>B-20 / GND</title></use><use href="#h" x="250" y="130" data-hole="B-21" class="c" data-connected="true" data-net="GND"><title>B-21 / GND</title></use><use href="#h" x="260" y="130" data-hole="B-22" class="c" data-connected="true" data-net="GND"><title>B-22 / GND</title></use><use href="#h" x="270" y="130" data-hole="B-23" class="c" data-connected="true" data-net="GND"><title>B-23 / GND</title></use><use href="#h" x="280" y="130" data-hole="B-24" class="c" data-connected="true" data-net="GND"><title>B-24 / GND</title></use><use href="#h" x="290" y="130" data-hole="B-25" class="c" data-connected="true" data-net="GND"><title>B-25 / GND</title></use></g>
<g id="components"><g data-ref="SW1" data-switch="SW1"><line x1="90.00" y1="70.00" x2="100.00" y2="55.00" stroke="#68766f" stroke-width="0.90"/><line x1="90.00" y1="40.00" x2="100.00" y2="55.00" stroke="#68766f" stroke-width="0.90"/><line x1="110.00" y1="70.00" x2="100.00" y2="55.00" stroke="#68766f" stroke-width="0.90"/><line x1="110.00" y1="40.00" x2="100.00" y2="55.00" stroke="#68766f" stroke-width="0.90"/><rect x="88.00" y="45.00" width="24.00" height="20.00" rx="2" fill="#ece7dd" stroke="#504c45" data-ref="SW1"/><circle cx="100.00" cy="55.00" r="5.00" fill="#c7c0b5" stroke="#6c655b"/><text x="100.00" y="42.00" transform="rotate(-90 100.00 42.00)" font-size="5" font-weight="500" text-anchor="middle">SW1</text></g><g data-ref="R1"><line x1="110.00" y1="110.00" x2="130.00" y2="110.00" stroke="#68766f" stroke-width="0.90"/><line x1="150.00" y1="110.00" x2="130.00" y2="110.00" stroke="#68766f" stroke-width="0.90"/><rect x="118.00" y="106.00" width="24.00" height="8.00" rx="3" fill="#f0d79c" stroke="#654f36" data-ref="R1"/><rect x="123.00" y="106.00" width="1.70" height="8.00" fill="#ff8c00"/><rect x="127.00" y="106.00" width="1.70" height="8.00" fill="#ff8c00"/><rect x="131.00" y="106.00" width="1.70" height="8.00" fill="#8b4513"/><rect x="135.00" y="106.00" width="1.70" height="8.00" fill="#d4af37"/></g><g data-ref="D1"><line x1="150.00" y1="100.00" x2="155.00" y2="100.00" stroke="#68766f" stroke-width="0.90"/><line x1="160.00" y1="100.00" x2="155.00" y2="100.00" stroke="#68766f" stroke-width="0.90"/><circle cx="155.00" cy="100.00" r="5.50" fill="#df5550" stroke="#aab7af" data-ref="D1"/><line x1="157.50" y1="95.00" x2="157.50" y2="105.00" stroke="#aab7af" stroke-width="1.20"/></g></g>
<g id="offboard"></g>
<g id="wires"><path d="M 90.00 110.00 L 90.00 140.00" fill="none" stroke="#f2f5f2" stroke-width="3.6" stroke-linecap="round" stroke-linejoin="round"/><path d="M 160.00 110.00 L 160.00 130.00" fill="none" stroke="#f2f5f2" stroke-width="3.6" stroke-linecap="round" stroke-linejoin="round"/><path d="M 90.00 110.00 L 90.00 140.00" fill="none" stroke="red" stroke-width="2.4" stroke-linecap="round" stroke-linejoin="round" data-ref="W1" data-net="VCC"/><path d="M 160.00 110.00 L 160.00 130.00" fill="none" stroke="black" stroke-width="2.4" stroke-linecap="round" stroke-linejoin="round" data-ref="W2" data-net="GND"/><circle cx="90.00" cy="110.00" r="2.80" fill="red" stroke="#f2f5f2" stroke-width="1.2" data-wire="W1"/><circle cx="90.00" cy="140.00" r="2.80" fill="red" stroke="#f2f5f2" stroke-width="1.2" data-wire="W1"/><circle cx="160.00" cy="110.00" r="2.80" fill="black" stroke="#f2f5f2" stroke-width="1.2" data-wire="W2"/><circle cx="160.00" cy="130.00" r="2.80" fill="black" stroke="#f2f5f2" stroke-width="1.2" data-wire="W2"/></g>
<g id="component-labels"><g data-ref="R1"><rect x="116.15" y="96.00" width="27.70" height="9.00" rx="2" fill="#f2f5f2" transform="rotate(-90 130.00 103.00)"/><text x="130.00" y="103.00" transform="rotate(-90 130.00 103.00)" font-size="5" font-weight="500" fill="#25312b" text-anchor="middle" paint-order="stroke" stroke="#f2f5f2" stroke-width="1.5" stroke-linejoin="round">R1 330Ω</text></g><g data-ref="D1"><rect x="149.00" y="85.00" width="13.00" height="9.00" rx="2" fill="#f2f5f2" transform="rotate(-90 155.00 92.00)"/><text x="155.00" y="92.00" transform="rotate(-90 155.00 92.00)" font-size="5" font-weight="500" fill="#25312b" text-anchor="middle" paint-order="stroke" stroke="#f2f5f2" stroke-width="1.5" stroke-linejoin="round">D1</text></g></g>
<g id="labels"><text x="-7.00" y="110.00" transform="rotate(-90 -7.00 110.00)" font-size="8" font-weight="500" fill="#627168" text-anchor="middle">a</text><text x="-7.00" y="100.00" transform="rotate(-90 -7.00 100.00)" font-size="8" font-weight="500" fill="#627168" text-anchor="middle">b</text><text x="-7.00" y="90.00" transform="rotate(-90 -7.00 90.00)" font-size="8" font-weight="500" fill="#627168" text-anchor="middle">c</text><text x="-7.00" y="80.00" transform="rotate(-90 -7.00 80.00)" font-size="8" font-weight="500" fill="#627168" text-anchor="middle">d</text><text x="-7.00" y="70.00" transform="rotate(-90 -7.00 70.00)" font-size="8" font-weight="500" fill="#627168" text-anchor="middle">e</text><text x="-7.00" y="40.00" transform="rotate(-90 -7.00 40.00)" font-size="8" font-weight="500" fill="#627168" text-anchor="middle">f</text><text x="-7.00" y="30.00" transform="rotate(-90 -7.00 30.00)" font-size="8" font-weight="500" fill="#627168" text-anchor="middle">g</text><text x="-7.00" y="20.00" transform="rotate(-90 -7.00 20.00)" font-size="8" font-weight="500" fill="#627168" text-anchor="middle">h</text><text x="-7.00" y="10.00" transform="rotate(-90 -7.00 10.00)" font-size="8" font-weight="500" fill="#627168" text-anchor="middle">i</text><text x="-7.00" y="0.00" transform="rotate(-90 -7.00 0.00)" font-size="8" font-weight="500" fill="#627168" text-anchor="middle">j</text><rect x="2.00" y="115.00" width="6.00" height="10.00" rx="2" fill="#f2f5f2" stroke="#b8c4bc" stroke-width="0.6"/><text x="8.00" y="120.00" transform="rotate(-90 8.00 120.00)" font-size="6" font-weight="500" fill="#25312b" text-anchor="middle">1</text><rect x="42.00" y="115.00" width="6.00" height="10.00" rx="2" fill="#f2f5f2" stroke="#b8c4bc" stroke-width="0.6"/><text x="48.00" y="120.00" transform="rotate(-90 48.00 120.00)" font-size="6" font-weight="500" fill="#25312b" text-anchor="middle">5</text><rect x="92.00" y="115.00" width="6.00" height="10.00" rx="2" fill="#f2f5f2" stroke="#b8c4bc" stroke-width="0.6"/><text x="98.00" y="120.00" transform="rotate(-90 98.00 120.00)" font-size="6" font-weight="500" fill="#25312b" text-anchor="middle">10</text><rect x="142.00" y="115.00" width="6.00" height="10.00" rx="2" fill="#f2f5f2" stroke="#b8c4bc" stroke-width="0.6"/><text x="148.00" y="120.00" transform="rotate(-90 148.00 120.00)" font-size="6" font-weight="500" fill="#25312b" text-anchor="middle">15</text><rect x="192.00" y="115.00" width="6.00" height="10.00" rx="2" fill="#f2f5f2" stroke="#b8c4bc" stroke-width="0.6"/><text x="198.00" y="120.00" transform="rotate(-90 198.00 120.00)" font-size="6" font-weight="500" fill="#25312b" text-anchor="middle">20</text><rect x="242.00" y="115.00" width="6.00" height="10.00" rx="2" fill="#f2f5f2" stroke="#b8c4bc" stroke-width="0.6"/><text x="248.00" y="120.00" transform="rotate(-90 248.00 120.00)" font-size="6" font-weight="500" fill="#25312b" text-anchor="middle">25</text><rect x="292.00" y="115.00" width="6.00" height="10.00" rx="2" fill="#f2f5f2" stroke="#b8c4bc" stroke-width="0.6"/><text x="298.00" y="120.00" transform="rotate(-90 298.00 120.00)" font-size="6" font-weight="500" fill="#25312b" text-anchor="middle">30</text></g>
<g id="nets"></g><g id="annotations"></g>
</g>
<g id="legend"></g></svg>