<?xml version="1.0" encoding="UTF-8"?>
<svg xmlns="http://www.w3.org/2000/svg" width="160.00" height="210.00" viewBox="0 0 160.00 210.00" font-family="Helvetica, Arial, 'Noto Sans JP', sans-serif" fill="#25312b" role="img">
<title>Breadkit circuit</title>
<desc>Breadboard wiring diagram generated by Breadkit.</desc>
<g transform="matrix(0 1 -1 0 135.00 25.00)">
<g id="board"><rect x="-15.00" y="-15.00" width="190.00" height="140.00" rx="8" fill="#f2f5f2" stroke="#b8c4bc" stroke-width="1"/><rect x="-10.00" y="45.00" width="180.00" height="20.00" rx="2" fill="#e0e6e2"/></g>
<g id="holes"><defs><circle id="h" r="1.3"/><circle id="u" r="1.8"/></defs><style>#holes use{fill:#9aa69f;opacity:.75}#holes use.c{fill:#71877a}#holes use.o{fill:#394a40;opacity:1}</style><use href="#h" x="0" y="110" data-hole="a1"/><use href="#h" x="0" y="100" data-hole="b1"/><use href="#h" x="0" y="90" data-hole="c1"/><use href="#h" x="0" y="80" data-hole="d1"/><use href="#h" x="0" y="70" data-hole="e1"/><use href="#h" x="0" y="40" data-hole="f1"/><use href="#h" x="0" y="30" data-hole="g1"/><use href="#h" x="0" y="20" data-hole="h1"/><use href="#h" x="0" y="10" data-hole="i1"/><use href="#h" x="0" y="0" data-hole="j1"/><use href="#h" x="10" y="110" data-hole="a2"/><use href="#h" x="10" y="100" data-hole="b2"/><use href="#h" x="10" y="90" data-hole="c2"/><use href="#h" x="10" y="80" data-hole="d2"/><use href="#h" x="10" y="70" data-hole="e2"/><use href="#h" x="10" y="40" data-hole="f2"/><use href="#h" x="10" y="30" data-hole="g2"/><use href="#h" x="10" y="20" data-hole="h2"/><use href="#h" x="10" y="10" data-hole="i2"/><use href="#h" x="10" y="0" data-hole="j2"/><use href="#h" x="20" y="110" data-hole="a3"/><use href="#h" x="20" y="100" data-hole="b3"/><use href="#h" x="20" y="90" data-hole="c3"/><use href="#h" x="20" y="80" data-hole="d3"/><use href="#h" x="20" y="70" data-hole="e3"/><use href="#h" x="20" y="40" data-hole="f3"/><use href="#h" x="20" y="30" data-hole="g3"/><use href="#h" x="20" y="20" data-hole="h3"/><use href="#h" x="20" y="10" data-hole="i3"/><use href="#h" x="20" y="0" data-hole="j3"/><use href="#h" x="30" y="110" data-hole="a4"/><use href="#h" x="30" y="100" data-hole="b4"/><use href="#h" x="30" y="90" data-hole="c4"/><use href="#h" x="30" y="80" data-hole="d4"/><use href="#h" x="30" y="70" data-hole="e4"/><use href="#h" x="30" y="40" data-hole="f4"/><use href="#h" x="30" y="30" data-hole="g4"/><use href="#h" x="30" y="20" data-hole="h4"/><use href="#h" x="30" y="10" data-hole="i4"/><use href="#h" x="30" y="0" data-hole="j4"/><use href="#h" x="40" y="110" data-hole="a5"/><use href="#h" x="40" y="100" data-hole="b5"/><use href="#h" x="40" y="90" data-hole="c5"/><use href="#h" x="40" y="80" data-hole="d5"/><use href="#h" x="40" y="70" data-hole="e5"/><use href="#h" x="40" y="40" data-hole="f5"/><use href="#h" x="40" y="30" data-hole="g5"/><use href="#h" x="40" y="20" data-hole="h5"/><use href="#h" x="40" y="10" data-hole="i5"/><use href="#h" x="40" y="0" data-hole="j5"/><use href="#h" x="50" y="110" data-hole="a6"/><use href="#h" x="50" y="100" data-hole="b6"/><use href="#h" x="50" y="90" data-hole="c6"/><use href="#h" x="50" y="80" data-hole="d6"/><use href="#h" x="50" y="70" data-hole="e6"/><use href="#h" x="50" y="40" data-hole="f6"/><use href="#h" x="50" y="30" data-hole="g6"/><use href="#h" x="50" y="20" data-hole="h6"/><use href="#h" x="50" y="10" data-hole="i6"/><use href="#h" x="50" y="0" data-hole="j6"/><use href="#h" x="60" y="110" data-hole="a7"/><use href="#h" x="60" y="100" data-hole="b7"/><use href="#h" x="60" y="90" data-hole="c7"/><use href="#h" x="60" y="80" data-hole="d7"/><use href="#h" x="60" y="70" data-hole="e7"/><use href="#h" x="60" y="40" data-hole="f7"/><use href="#h" x="60" y="30" data-hole="g7"/><use href="#h" x="60" y="20" data-hole="h7"/><use href="#h" x="60" y="10" data-hole="i7"/><use href="#h" x="60" y="0" data-hole="j7"/><use href="#h" x="70" y="110" data-hole="a8"/><use href="#h" x="70" y="100" data-hole="b8"/><use href="#h" x="70" y="90" data-hole="c8"/><use href="#h" x="70" y="80" data-hole="d8"/><use href="#h" x="70" y="70" data-hole="e8"/><use href="#h" x="70" y="40" data-hole="f8"/><use href="#h" x="70" y="30" data-hole="g8"/><use href="#h" x="70" y="20" data-hole="h8"/><use href="#h" x="70" y="10" data-hole="i8"/><use href="#h" x="70" y="0" data-hole="j8"/><use href="#h" x="80" y="110" data-hole="a9"/><use href="#h" x="80" y="100" data-hole="b9"/><use href="#h" x="80" y="90" data-hole="c9"/><use href="#h" x="80" y="80" data-hole="d9"/><use href="#h" x="80" y="70" data-hole="e9"/><use href="#h" x="80" y="40" data-hole="f9"/><use href="#h" x="80" y="30" data-hole="g9"/><use href="#h" x="80" y="20" data-hole="h9"/><use href="#h" x="80" y="10" data-hole="i9"/><use href="#h" x="80" y="0" data-hole="j9"/><use href="#h" x="90" y="110" data-hole="a10"/><use href="#h" x="90" y="100" data-hole="b10"/><use href="#h" x="90" y="90" data-hole="c10"/><use href="#h" x="90" y="80" data-hole="d10"/><use href="#h" x="90" y="70" data-hole="e10"/><use href="#h" x="90" y="40" data-hole="f10"/><use href="#h" x="90" y="30" data-hole="g10"/><use href="#h" x="90" y="20" data-hole="h10"/><use href="#h" x="90" y="10" data-hole="i10"/><use href="#h" x="90" y="0" data-hole="j10"/><use href="#h" x="100" y="110" data-hole="a11"/><use href="#h" x="100" y="100" data-hole="b11"/><use href="#h" x="100" y="90" data-hole="c11"/><use href="#h" x="100" y="80" data-hole="d11"/><use href="#h" x="100" y="70" data-hole="e11"/><use href="#h" x="100" y="40" data-hole="f11"/><use href="#h" x="100" y="30" data-hole="g11"/><use href="#h" x="100" y="20" data-hole="h11"/><use href="#h" x="100" y="10" data-hole="i11"/><use href="#h" x="100" y="0" data-hole="j11"/><use href="#h" x="110" y="110" data-hole="a12"/><use href="#h" x="110" y="100" data-hole="b12"/><use href="#h" x="110" y="90" data-hole="c12"/><use href="#h" x="110" y="80" data-hole="d12"/><use href="#h" x="110" y="70" data-hole="e12"/><use href="#h" x="110" y="40" data-hole="f12"/><use href="#h" x="110" y="30" data-hole="g12"/><use href="#h" x="110" y="20" data-hole="h12"/><use href="#h" x="110" y="10" data-hole="i12"/><use href="#h" x="110" y="0" data-hole="j12"/><use href="#h" x="120" y="110" data-hole="a13"/><use href="#h" x="120" y="100" data-hole="b13"/><use href="#h" x="120" y="90" data-hole="c13"/><use href="#h" x="120" y="80" data-hole="d13"/><use href="#h" x="120" y="70" data-hole="e13"/><use href="#h" x="120" y="40" data-hole="f13"/><use href="#h" x="120" y="30" data-hole="g13"/><use href="#h" x="120" y="20" data-hole="h13"/><use href="#h" x="120" y="10" data-hole="i13"/><use href="#h" x="120" y="0" data-hole="j13"/><use href="#h" x="130" y="110" data-hole="a14"/><use href="#h" x="130" y="100" data-hole="b14"/><use href="#h" x="130" y="90" data-hole="c14"/><use href="#h" x="130" y="80" data-hole="d14"/><use href="#h" x="130" y="70" data-hole="e14"/><use href="#h" x="130" y="40" data-hole="f14"/><use href="#h" x="130" y="30" data-hole="g14"/><use href="#h" x="130" y="20" data-hole="h14"/><use href="#h" x="130" y="10" data-hole="i14"/><use href="#h" x="130" y="0" data-hole="j14"/><use href="#h" x="140" y="110" data-hole="a15"/><use href="#h" x="140" y="100" data-hole="b15"/><use href="#h" x="140" y="90" data-hole="c15"/><use href="#h" x="140" y="80" data-hole="d15"/><use href="#h" x="140" y="70" data-hole="e15"/><use href="#h" x="140" y="40" data-hole="f15"/><use href="#h" x="140" y="30" data-hole="g15"/><use href="#h" x="140" y="20" data-hole="h15"/><use href="#h" x="140" y="10" data-hole="i15"/><use href="#h" x="140" y="0" data-hole="j15"/><use href="#h" x="150" y="110" data-hole="a16"/><use href="#h" x="150" y="100" data-hole="b16"/><use href="#h" x="150" y="90" data-hole="c16"/><use href="#h" x="150" y="80" data-hole="d16"/><use href="#h" x="150" y="70" data-hole="e16"/><use href="#h" x="150" y="40" data-hole="f16"/><use href="#h" x="150" y="30" data-hole="g16"/><use href="#h" x="150" y="20" data-hole="h16"/><use href="#h" x="150" y="10" data-hole="i16"/><use href="#h" x="150" y="0" data-hole="j16"/><use href="#h" x="160" y="110" data-hole="a17"/><use href="#h" x="160" y="100" data-hole="b17"/><use href="#h" x="160" y="90" data-hole="c17"/><use href="#h" x="160" y="80" data-hole="d17"/><use href="#h" x="160" y="70" data-hole="e17"/><use href="#h" x="160" y="40" data-hole="f17"/><use href="#h" x="160" y="30" data-hole="g17"/><use href="#h" x="160" y="20" data-hole="h17"/><use href="#h" x="160" y="10" data-hole="i17"/><use href="#h" x="160" y="0" data-hole="j17"/></g>
<g id="components"></g>
<g id="offboard"></g>
<g id="wires"></g>
<g id="labels"><text x="-7.00" y="110.00" transform="rotate(-90 -7.00 110.00)" font-size="8" font-weight="500" fill="#627168" text-anchor="middle">a</text><text x="-7.00" y="100.00" transform="rotate(-90 -7.00 100.00)" font-size="8" font-weight="500" fill="#627168" text-anchor="middle">b</text><text x="-7.00" y="90.00" transform="rotate(-90 -7.00 90.00)" font-size="8" font-weight="500" fill="#627168" text-anchor="middle">c</text><text x="-7.00" y="80.00" transform="rotate(-90 -7.00 80.00)" font-size="8" font-weight="500" fill="#627168" text-anchor="middle">d</text><text x="-7.00" y="70.00" transform="rotate(-90 -7.00 70.00)" font-size="8" font-weight="500" fill="#627168" text-anchor="middle">e</text><text x="-7.00" y="40.00" transform="rotate(-90 -7.00 40.00)" font-size="8" font-weight="500" fill="#627168" text-anchor="middle">f</text><text x="-7.00" y="30.00" transform="rotate(-90 -7.00 30.00)" font-size="8" font-weight="500" fill="#627168" text-anchor="middle">g</text><text x="-7.00" y="20.00" transform="rotate(-90 -7.00 20.00)" font-size="8" font-weight="500" fill="#627168" text-anchor="middle">h</text><text x="-7.00" y="10.00" transform="rotate(-90 -7.00 10.00)" font-size="8" font-weight="500" fill="#627168" text-anchor="middle">i</text><text x="-7.00" y="0.00" transform="rotate(-90 -7.00 0.00)" font-size="8" font-weight="500" fill="#627168" text-anchor="middle">j</text><rect x="2.00" y="115.00" width="6.00" height="10.00" rx="2" fill="#f2f5f2" stroke="#b8c4bc" stroke-width="0.6"/><text x="8.00" y="120.00" transform="rotate(-90 8.00 120.00)" font-size="6" font-weight="500" fill="#25312b" text-anchor="middle">1</text><rect x="42.00" y="115.00" width="6.00" height="10.00" rx="2" fill="#f2f5f2" stroke="#b8c4bc" stroke-width="0.6"/><text x="48.00" y="120.00" transform="rotate(-90 48.00 120.00)" font-size="6" font-weight="500" fill="#25312b" text-anchor="middle">5</text><rect x="92.00" y="115.00" width="6.00" height="10.00" rx="2" fill="#f2f5f2" stroke="#b8c4bc" stroke-width="0.6"/><text x="98.00" y="120.00" transform="rotate(-90 98.00 120.00)" font-size="6" font-weight="500" fill="#25312b" text-anchor="middle">10</text><rect x="142.00" y="115.00" width="6.00" height="10.00" rx="2" fill="#f2f5f2" stroke="#b8c4bc" stroke-width="0.6"/><text x="148.00" y="120.00" transform="rotate(-90 148.00 120.00)" font-size="6" font-weight="500" fill="#25312b" text-anchor="middle">15</text></g>
<g id="nets"></g><g id="annotations"></g>
</g>
<g id="legend"></g></svg>